<svg width="16" height="16" viewBox="0 0 16 16" fill="none" xmlns="http://www.w3.org/2000/svg">
<path d="M14 5.95998C13.9931 5.89874 13.9796 5.8384 13.96 5.77998V5.71998C13.9279 5.65143 13.8852 5.58842 13.8333 5.53331L9.83333 1.53331C9.77822 1.48146 9.71521 1.4387 9.64667 1.40665C9.62677 1.40382 9.60657 1.40382 9.58667 1.40665C9.51894 1.36781 9.44415 1.34288 9.36667 1.33331H6.66667C6.13623 1.33331 5.62753 1.54403 5.25245 1.9191C4.87738 2.29417 4.66667 2.80288 4.66667 3.33331V3.99998H4C3.46957 3.99998 2.96086 4.21069 2.58579 4.58577C2.21071 4.96084 2 5.46955 2 5.99998V12.6666C2 13.1971 2.21071 13.7058 2.58579 14.0809C2.96086 14.4559 3.46957 14.6666 4 14.6666H9.33333C9.86377 14.6666 10.3725 14.4559 10.7475 14.0809C11.1226 13.7058 11.3333 13.1971 11.3333 12.6666V12H12C12.5304 12 13.0391 11.7893 13.4142 11.4142C13.7893 11.0391 14 10.5304 14 9.99998V5.99998C14 5.99998 14 5.99998 14 5.95998ZM10 3.60665L11.7267 5.33331H10.6667C10.4899 5.33331 10.3203 5.26307 10.1953 5.13805C10.0702 5.01303 10 4.84346 10 4.66665V3.60665ZM10 12.6666C10 12.8435 9.92976 13.013 9.80474 13.1381C9.67971 13.2631 9.51014 13.3333 9.33333 13.3333H4C3.82319 13.3333 3.65362 13.2631 3.5286 13.1381C3.40357 13.013 3.33333 12.8435 3.33333 12.6666V5.99998C3.33333 5.82317 3.40357 5.6536 3.5286 5.52857C3.65362 5.40355 3.82319 5.33331 4 5.33331H4.66667V9.99998C4.66667 10.5304 4.87738 11.0391 5.25245 11.4142C5.62753 11.7893 6.13623 12 6.66667 12H10V12.6666ZM12.6667 9.99998C12.6667 10.1768 12.5964 10.3464 12.4714 10.4714C12.3464 10.5964 12.1768 10.6666 12 10.6666H6.66667C6.48986 10.6666 6.32029 10.5964 6.19526 10.4714C6.07024 10.3464 6 10.1768 6 9.99998V3.33331C6 3.1565 6.07024 2.98693 6.19526 2.86191C6.32029 2.73688 6.48986 2.66665 6.66667 2.66665H8.66667V4.66665C8.66667 5.19708 8.87738 5.70579 9.25245 6.08086C9.62753 6.45593 10.1362 6.66665 10.6667 6.66665H12.6667V9.99998Z" fill="#929496"/>
</svg>
