<svg width="16" height="16" viewBox="0 0 16 16" fill="none" xmlns="http://www.w3.org/2000/svg">
<path d="M13.2734 10.34H10.2534C10.0766 10.34 9.90699 10.4103 9.78197 10.5353C9.65695 10.6603 9.58671 10.8299 9.58671 11.0067C9.58671 11.1835 9.65695 11.3531 9.78197 11.4781C9.90699 11.6031 10.0766 11.6734 10.2534 11.6734H11.8534C11.118 12.4419 10.1696 12.9729 9.13015 13.1983C8.09066 13.4237 7.00751 13.3331 6.01989 12.9382C5.03227 12.5433 4.18529 11.8621 3.58777 10.9822C2.99025 10.1022 2.66949 9.06368 2.66671 8.00004C2.66671 7.82323 2.59647 7.65366 2.47145 7.52864C2.34642 7.40361 2.17685 7.33337 2.00004 7.33337C1.82323 7.33337 1.65366 7.40361 1.52864 7.52864C1.40361 7.65366 1.33337 7.82323 1.33337 8.00004C1.3369 9.30191 1.72152 10.5743 2.43978 11.6601C3.15803 12.7459 4.17848 13.5976 5.3752 14.1102C6.57192 14.6228 7.89253 14.7737 9.17405 14.5445C10.4556 14.3152 11.6419 13.7157 12.5867 12.82V14C12.5867 14.1769 12.6569 14.3464 12.782 14.4714C12.907 14.5965 13.0766 14.6667 13.2534 14.6667C13.4302 14.6667 13.5998 14.5965 13.7248 14.4714C13.8498 14.3464 13.92 14.1769 13.92 14V11C13.9184 10.8278 13.8501 10.6629 13.7296 10.5398C13.609 10.4168 13.4455 10.3452 13.2734 10.34ZM8.00004 1.33337C6.29096 1.33825 4.64903 1.99932 3.41337 3.18004V2.00004C3.41337 1.82323 3.34314 1.65366 3.21811 1.52864C3.09309 1.40361 2.92352 1.33337 2.74671 1.33337C2.5699 1.33337 2.40033 1.40361 2.2753 1.52864C2.15028 1.65366 2.08004 1.82323 2.08004 2.00004V5.00004C2.08004 5.17685 2.15028 5.34642 2.2753 5.47144C2.40033 5.59647 2.5699 5.66671 2.74671 5.66671H5.74671C5.92352 5.66671 6.09309 5.59647 6.21811 5.47144C6.34314 5.34642 6.41337 5.17685 6.41337 5.00004C6.41337 4.82323 6.34314 4.65366 6.21811 4.52864C6.09309 4.40361 5.92352 4.33337 5.74671 4.33337H4.14671C4.88168 3.56529 5.82943 3.03437 6.86831 2.80878C7.90718 2.58318 8.98977 2.6732 9.97711 3.06728C10.9645 3.46136 11.8115 4.14152 12.4095 5.02044C13.0076 5.89937 13.3293 6.93696 13.3334 8.00004C13.3334 8.17685 13.4036 8.34642 13.5286 8.47144C13.6537 8.59647 13.8232 8.66671 14 8.66671C14.1769 8.66671 14.3464 8.59647 14.4714 8.47144C14.5965 8.34642 14.6667 8.17685 14.6667 8.00004C14.6667 7.12456 14.4943 6.25765 14.1592 5.44882C13.8242 4.63998 13.3331 3.90505 12.7141 3.286C12.095 2.66694 11.3601 2.17588 10.5513 1.84084C9.74243 1.50581 8.87552 1.33337 8.00004 1.33337Z" fill="#F9A500"/>
</svg>
